<svg xmlns="http://www.w3.org/2000/svg" width="160.565" height="160.561" viewBox="0 0 160.565 160.561"><g transform="translate(-368.014 -447.023)" opacity="0.306"><path d="M445.7,513.888a1.285,1.285,0,0,0,.7-.207,1.232,1.232,0,0,0,.487-.582,1.277,1.277,0,0,0-.687-1.669l-2.081-.867-.673-.28a1.278,1.278,0,0,0-1.674.684v.006a1.029,1.029,0,0,0-.033.167,1.231,1.231,0,0,0-.065.329,1.17,1.17,0,0,0,.064.318.859.859,0,0,0,.031.158,1.271,1.271,0,0,0,.688.7l1.527.636,1.219.512A1.28,1.28,0,0,0,445.7,513.888Z" transform="translate(30.9 26.493)" fill="#c6a15b"/><path d="M409.493,497.274a1.055,1.055,0,0,0-.125.185,1.277,1.277,0,0,0,.686,1.672l1.966.822a1.277,1.277,0,0,0,1.669-.688,1.239,1.239,0,0,0,.1-.5,118.789,118.789,0,0,0-.094-.474,1.273,1.273,0,0,0-.693-.7l-1.959-.816A1.257,1.257,0,0,0,409.493,497.274Z" transform="translate(17.305 20.827)" fill="#c6a15b"/><path d="M411.35,492.067a1.1,1.1,0,0,0-.037-.109,1.236,1.236,0,0,0-.335-.389l-.524-.4-1.834-1.415a1.277,1.277,0,0,0-1.791.233l0,0h0a1.308,1.308,0,0,0-.194.4.523.523,0,0,0-.024.05,1.278,1.278,0,0,0,.454,1.346l1.445,1.109.914.71a1.3,1.3,0,0,0,.782.266,1.282,1.282,0,0,0,1.013-.5v-.007h0l0-.006a1.227,1.227,0,0,0,.219-.45c.009-.024,0-.054.007-.081a1.331,1.331,0,0,0,.027-.4A1.368,1.368,0,0,0,411.35,492.067Z" transform="translate(16.169 17.812)" fill="#c6a15b"/><path d="M411.578,493.646a1.283,1.283,0,0,0,.23,1.794l1.689,1.3a1.251,1.251,0,0,0,.778.264,1.274,1.274,0,0,0,1.012-.492,1.369,1.369,0,0,0,.226-.464v-.009a1.218,1.218,0,0,0,.026-.474,1.244,1.244,0,0,0-.485-.855l-1.681-1.3A1.282,1.282,0,0,0,411.578,493.646Z" transform="translate(18.163 19.348)" fill="#c6a15b"/><path d="M437.584,522.6v0h0c.043.058.112.084.162.135a1.4,1.4,0,0,0,.292.237,1.263,1.263,0,0,0,.559.131,1.279,1.279,0,0,0,1.019-2.055l-1.209-1.58-.6-.792a1.277,1.277,0,0,0-1.79-.241v0h0a1.28,1.28,0,0,0-.243,1.794l1.524,1.99Z" transform="translate(28.313 29.848)" fill="#c6a15b"/><path d="M417.787,492.464l-1.29-1.685a1.262,1.262,0,0,0-.849-.491,1.249,1.249,0,0,0-.941.248,1.282,1.282,0,0,0-.244,1.8l1.292,1.689a1.273,1.273,0,0,0,1.79.243,1.243,1.243,0,0,0,.336-.386,1.28,1.28,0,0,0,.145-.437.045.045,0,0,0,.009-.021A1.271,1.271,0,0,0,417.787,492.464Z" transform="translate(19.374 18.143)" fill="#c6a15b"/><path d="M451.337,564.726,438.31,533.055a1.283,1.283,0,0,0-1.669-.7,1.229,1.229,0,0,0-.426.288,1.279,1.279,0,0,0-.27,1.385L448.975,565.7a1.278,1.278,0,0,0,1.182.793,1.332,1.332,0,0,0,.484-.094,1.283,1.283,0,0,0,.792-1.172A1.256,1.256,0,0,0,451.337,564.726Z" transform="translate(28.454 35.756)" fill="#c6a15b"/><path d="M402.414,452.546l13.026,31.67a1.28,1.28,0,0,0,1.181.792,1.285,1.285,0,0,0,1.184-1.767l-13.032-31.668a1.277,1.277,0,0,0-2.457.476A1.261,1.261,0,0,0,402.414,452.546Z" transform="translate(14.389 1.577)" fill="#c6a15b"/><path d="M419.122,486.651a1.188,1.188,0,0,0-.078-.4l-1.131-2.759a1.292,1.292,0,0,0-1.178-.792,1.338,1.338,0,0,0-.173.035,1.146,1.146,0,0,0-.321.062h-.006a1.275,1.275,0,0,0-.691,1.669l.7,1.7.432,1.052a1.28,1.28,0,0,0,2.463-.478C419.141,486.71,419.124,486.683,419.122,486.651Z" transform="translate(19.896 14.964)" fill="#c6a15b"/><path d="M430.32,535.522a1.275,1.275,0,0,0-2.28-.615,1.265,1.265,0,0,0-.255.944l4.39,33.959a1.283,1.283,0,0,0,1.269,1.117c.054,0,.108,0,.165-.01a1.28,1.28,0,0,0,1.1-1.432h0Z" transform="translate(25.068 36.655)" fill="#c6a15b"/><path d="M428.75,534.635a1.337,1.337,0,0,0,.169-.01,1.281,1.281,0,0,0,1.1-1.432l-.493-3.806a1.592,1.592,0,0,0-.058-.163,1.423,1.423,0,0,0-.107-.318c-.007-.01-.021-.017-.027-.031a1.274,1.274,0,0,0-2.345.84h0v0l.494,3.8a1.267,1.267,0,0,0,.81,1.029A1.208,1.208,0,0,0,428.75,534.635Z" transform="translate(24.735 34.082)" fill="#c6a15b"/><path d="M420.878,482.426a1.277,1.277,0,0,0,1.263,1.117,1.364,1.364,0,0,0,.167-.013,1.276,1.276,0,0,0,1.1-1.434l-4.389-33.959a1.28,1.28,0,0,0-2.539.324h0v0Z" transform="translate(20.327)" fill="#c6a15b"/><path d="M421.89,474.573a1.393,1.393,0,0,0-.246-.119,1.229,1.229,0,0,0-.517-.041,1.279,1.279,0,0,0-1.1,1.431l.434,3.34.06.463a1.284,1.284,0,0,0,1.269,1.117,1.359,1.359,0,0,0,.166-.01,1.278,1.278,0,0,0,1.1-1.432v0h0l-.122-.926-.37-2.873a1.262,1.262,0,0,0-.494-.85A1.422,1.422,0,0,0,421.89,474.573Z" transform="translate(21.812 11.484)" fill="#c6a15b"/><path d="M422.133,481.264a.654.654,0,0,0-.116-.006h0a1.281,1.281,0,0,0-1.107,1.431l.389,2.955a1.278,1.278,0,0,0,1.266,1.114c.055,0,.108,0,.166-.007a1.281,1.281,0,0,0,1.1-1.435h0v0l-.047-.359-.335-2.593a1.27,1.27,0,0,0-.923-1.065A1.393,1.393,0,0,0,422.133,481.264Z" transform="translate(22.182 14.36)" fill="#c6a15b"/><path d="M423.725,487.469a1.275,1.275,0,0,0-2.043,1.175l.271,2.109a1.278,1.278,0,1,0,2.535-.328l-.268-2.111A1.272,1.272,0,0,0,423.725,487.469Z" transform="translate(22.508 16.854)" fill="#c6a15b"/><path d="M422.213,534.4a1.278,1.278,0,0,0-1.434,1.1l-4.549,33.942a1.282,1.282,0,0,0,1.1,1.438,1.371,1.371,0,0,0,.172.013,1.28,1.28,0,0,0,1.263-1.111l4.548-33.944A1.275,1.275,0,0,0,422.213,534.4Z" transform="translate(20.221 36.647)" fill="#c6a15b"/><path d="M421.842,528.27a1.281,1.281,0,0,0-1.437,1.094l-.508,3.808a1.275,1.275,0,0,0,1.1,1.432,1.457,1.457,0,0,0,.172.011,1.28,1.28,0,0,0,1.266-1.106l.505-3.808A1.271,1.271,0,0,0,421.842,528.27Z" transform="translate(21.759 34.076)" fill="#c6a15b"/><path d="M422.65,522.023a1.261,1.261,0,0,0-1.435,1.1l-.4,2.954a1.277,1.277,0,0,0,1.094,1.438c.06.006.115.013.175.013a1.28,1.28,0,0,0,1.263-1.11l.4-2.953A1.283,1.283,0,0,0,422.65,522.023Z" transform="translate(22.143 31.455)" fill="#c6a15b"/><path d="M423.328,516.673a1.282,1.282,0,0,0-1.434,1.1l-.284,2.105a1.27,1.27,0,0,0,1.1,1.434.986.986,0,0,0,.173.016,1.281,1.281,0,0,0,1.262-1.11l.282-2.1A1.283,1.283,0,0,0,423.328,516.673Z" transform="translate(22.477 29.212)" fill="#c6a15b"/><path d="M429.028,483.542a1.018,1.018,0,0,0,.172.014,1.28,1.28,0,0,0,1.265-1.11l4.547-33.941a1.276,1.276,0,1,0-2.529-.341l-4.549,33.942A1.272,1.272,0,0,0,429.028,483.542Z" transform="translate(25.129 0.014)" fill="#c6a15b"/><path d="M428.21,480.763a1.148,1.148,0,0,0,.172.011,1.282,1.282,0,0,0,1.265-1.111l.508-3.8a1.279,1.279,0,0,0-2.537-.335l-.505,3.8A1.277,1.277,0,0,0,428.21,480.763Z" transform="translate(24.785 11.491)" fill="#c6a15b"/><path d="M427.374,486.76a.962.962,0,0,0,.169.01,1.283,1.283,0,0,0,1.268-1.11l.39-2.952a1.279,1.279,0,0,0-2.537-.334l-.392,2.951A1.279,1.279,0,0,0,427.374,486.76Z" transform="translate(24.433 14.362)" fill="#c6a15b"/><path d="M426.651,491.862a1.47,1.47,0,0,0,.176.011,1.275,1.275,0,0,0,1.262-1.107l.285-2.105a1.277,1.277,0,0,0-1.094-1.436,1.263,1.263,0,0,0-1.437,1.094l-.285,2.107A1.275,1.275,0,0,0,426.651,491.862Z" transform="translate(24.133 16.858)" fill="#c6a15b"/><path d="M417.024,532.307a1.283,1.283,0,0,0-1.672.687L402.175,564.6a1.281,1.281,0,0,0,.688,1.671,1.252,1.252,0,0,0,.493.1,1.286,1.286,0,0,0,1.181-.788l13.178-31.61A1.281,1.281,0,0,0,417.024,532.307Z" transform="translate(14.289 35.733)" fill="#c6a15b"/><path d="M413.486,532.5a1.292,1.292,0,0,0,1.675-.69l1.473-3.543a1.278,1.278,0,1,0-2.361-.981l-1.476,3.543A1.28,1.28,0,0,0,413.486,532.5Z" transform="translate(18.745 33.337)" fill="#c6a15b"/><path d="M416.144,525.888a1.223,1.223,0,0,0,.491.1,1.277,1.277,0,0,0,1.178-.785l1.148-2.748a1.277,1.277,0,1,0-2.356-.987l-1.146,2.748A1.272,1.272,0,0,0,416.144,525.888Z" transform="translate(19.86 30.898)" fill="#c6a15b"/><path d="M420.254,515.8a1.277,1.277,0,0,0-1.674.687l-.816,1.962a1.283,1.283,0,0,0,.69,1.674,1.322,1.322,0,0,0,.491.1,1.274,1.274,0,0,0,1.178-.786l.819-1.965A1.278,1.278,0,0,0,420.254,515.8Z" transform="translate(20.828 28.808)" fill="#c6a15b"/><path d="M436.77,484.949a1.285,1.285,0,0,0,1.672-.687l13.176-31.612a1.279,1.279,0,1,0-2.362-.982L436.08,483.275A1.282,1.282,0,0,0,436.77,484.949Z" transform="translate(28.511 1.618)" fill="#c6a15b"/><path d="M436.85,476.459a1.278,1.278,0,0,0-1.674.691l-1.473,3.537a1.277,1.277,0,0,0,.688,1.671,1.259,1.259,0,0,0,.494.1,1.282,1.282,0,0,0,1.178-.788l1.473-3.542A1.279,1.279,0,0,0,436.85,476.459Z" transform="translate(27.513 12.306)" fill="#c6a15b"/><path d="M434.086,482.83a1.28,1.28,0,0,0-1.666.691l-1.144,2.751a1.279,1.279,0,0,0,2.363.979l1.141-2.75A1.28,1.28,0,0,0,434.086,482.83Z" transform="translate(26.496 14.98)" fill="#c6a15b"/><path d="M429.887,492.695a1.281,1.281,0,0,0,1.672-.687l.816-1.962a1.275,1.275,0,1,0-2.353-.984l-.82,1.959A1.278,1.278,0,0,0,429.887,492.695Z" transform="translate(25.625 17.304)" fill="#c6a15b"/><path d="M412.374,528.282a1.273,1.273,0,0,0-1.791.231l-20.907,27.123a1.276,1.276,0,1,0,2.02,1.559L412.6,530.073A1.273,1.273,0,0,0,412.374,528.282Z" transform="translate(8.974 33.974)" fill="#c6a15b"/><path d="M407.542,528.714a1.285,1.285,0,0,0,1.012-.5l2.342-3.045a1.278,1.278,0,0,0-2.026-1.559l-2.341,3.039a1.278,1.278,0,0,0,.233,1.794A1.262,1.262,0,0,0,407.542,528.714Z" transform="translate(16.045 31.919)" fill="#c6a15b"/><path d="M411.756,523.042a1.276,1.276,0,0,0,1.012-.5l1.821-2.359a1.278,1.278,0,1,0-2.023-1.561l-1.82,2.359a1.279,1.279,0,0,0,1.009,2.058Z" transform="translate(17.813 29.827)" fill="#c6a15b"/><path d="M417.729,515.912a1.278,1.278,0,1,0-2.021-1.564l-1.3,1.685a1.276,1.276,0,1,0,2.021,1.557Z" transform="translate(19.35 28.033)" fill="#c6a15b"/><path d="M443.7,487.647a1.272,1.272,0,0,0,1.791-.23l20.912-27.125a1.278,1.278,0,1,0-2.024-1.56l-20.912,27.12A1.283,1.283,0,0,0,443.7,487.647Z" transform="translate(31.541 4.703)" fill="#c6a15b"/><path d="M442.039,480.6l-2.342,3.036a1.279,1.279,0,0,0,.233,1.791,1.261,1.261,0,0,0,.782.267,1.277,1.277,0,0,0,1.013-.5l2.335-3.033a1.277,1.277,0,1,0-2.021-1.561Z" transform="translate(29.958 13.874)" fill="#c6a15b"/><path d="M437.665,486.065l-1.818,2.361a1.279,1.279,0,0,0,2.028,1.56l1.817-2.365a1.278,1.278,0,0,0-2.027-1.556Z" transform="translate(28.344 16.167)" fill="#c6a15b"/><path d="M432.553,492.5a1.275,1.275,0,0,0,.233,1.791,1.259,1.259,0,0,0,.778.268,1.273,1.273,0,0,0,1.012-.5l1.3-1.681a1.277,1.277,0,1,0-2.02-1.563Z" transform="translate(26.96 18.163)" fill="#c6a15b"/><path d="M408.579,522.6a1.275,1.275,0,0,0-1.79-.241l-27.218,20.788a1.279,1.279,0,0,0,1.554,2.033l27.216-20.79A1.276,1.276,0,0,0,408.579,522.6Z" transform="translate(4.638 31.491)" fill="#c6a15b"/><path d="M406.115,520.633a1.278,1.278,0,0,0-1.553-2.03l-3.049,2.331a1.282,1.282,0,0,0-.238,1.791,1.274,1.274,0,0,0,1.793.238Z" transform="translate(13.842 29.916)" fill="#c6a15b"/><path d="M406.762,518.379a1.277,1.277,0,0,0,1.018.5,1.239,1.239,0,0,0,.771-.263l2.37-1.8a1.278,1.278,0,0,0-1.549-2.033L407,516.589A1.276,1.276,0,0,0,406.762,518.379Z" transform="translate(16.144 28.312)" fill="#c6a15b"/><path d="M412.548,515.087a1.283,1.283,0,0,0,.776-.261l1.688-1.292a1.279,1.279,0,0,0-1.553-2.033l-1.689,1.29a1.279,1.279,0,0,0,.778,2.3Z" transform="translate(18.144 26.937)" fill="#c6a15b"/><path d="M449.361,491.459a1.277,1.277,0,0,0,1.793.238l27.22-20.79a1.278,1.278,0,1,0-1.554-2.028L449.6,489.668A1.277,1.277,0,0,0,449.361,491.459Z" transform="translate(34.012 9.058)" fill="#c6a15b"/><path d="M444.687,487.963A1.279,1.279,0,0,0,446.239,490l3.046-2.327a1.279,1.279,0,1,0-1.552-2.033Z" transform="translate(31.952 16.087)" fill="#c6a15b"/><path d="M443.832,490.06a1.276,1.276,0,0,0-1.79-.234l-2.365,1.81a1.279,1.279,0,1,0,1.554,2.031l2.365-1.813A1.275,1.275,0,0,0,443.832,490.06Z" transform="translate(29.85 17.844)" fill="#c6a15b"/><path d="M437.074,493.472l-1.691,1.289a1.279,1.279,0,0,0,.776,2.292,1.254,1.254,0,0,0,.778-.264l1.689-1.287a1.278,1.278,0,1,0-1.553-2.03Z" transform="translate(28.05 19.374)" fill="#c6a15b"/><path d="M405.9,515.646a1.276,1.276,0,0,0-1.668-.7l-31.67,13.034a1.28,1.28,0,0,0,.485,2.461,1.346,1.346,0,0,0,.488-.1l31.671-13.039A1.275,1.275,0,0,0,405.9,515.646Z" transform="translate(1.578 28.453)" fill="#c6a15b"/><path d="M398.582,516.516a1.277,1.277,0,0,0,.487-.092l3.55-1.464a1.279,1.279,0,0,0-.974-2.365l-3.55,1.462a1.278,1.278,0,0,0,.487,2.458Z" transform="translate(12.287 27.466)" fill="#c6a15b"/><path d="M408.909,510.9a1.279,1.279,0,0,0-1.666-.7l-2.757,1.131a1.278,1.278,0,0,0,.487,2.461,1.255,1.255,0,0,0,.483-.1l2.755-1.131A1.278,1.278,0,0,0,408.909,510.9Z" transform="translate(14.966 26.46)" fill="#c6a15b"/><path d="M411,511.313l1.97-.8a1.278,1.278,0,0,0-.97-2.365l-1.965.808a1.276,1.276,0,0,0,.483,2.458A1.171,1.171,0,0,0,411,511.313Z" transform="translate(17.293 25.598)" fill="#c6a15b"/><path d="M453.356,496.12a1.273,1.273,0,0,0,1.665.7l31.671-13.036a1.277,1.277,0,0,0-.972-2.362l-31.673,13.034A1.278,1.278,0,0,0,453.356,496.12Z" transform="translate(35.758 14.387)" fill="#c6a15b"/><path d="M447.638,495.049a1.272,1.272,0,0,0,1.181.791,1.337,1.337,0,0,0,.485-.092l3.544-1.458a1.278,1.278,0,0,0-.972-2.365l-3.544,1.458A1.278,1.278,0,0,0,447.638,495.049Z" transform="translate(33.36 18.795)" fill="#c6a15b"/><path d="M441.808,497.357a1.276,1.276,0,0,0,1.181.789,1.262,1.262,0,0,0,.485-.1l2.755-1.137a1.277,1.277,0,1,0-.972-2.361l-2.755,1.137A1.28,1.28,0,0,0,441.808,497.357Z" transform="translate(30.914 19.896)" fill="#c6a15b"/><path d="M439.478,496.836l-1.969.809A1.277,1.277,0,0,0,438,500.1a1.184,1.184,0,0,0,.484-.1l1.966-.8a1.278,1.278,0,1,0-.968-2.366Z" transform="translate(28.819 20.855)" fill="#c6a15b"/><path d="M404.526,507.9a1.292,1.292,0,0,0-1.432-1.106l-33.965,4.395a1.279,1.279,0,0,0,.162,2.548c.054,0,.109-.007.167-.01l33.965-4.4A1.275,1.275,0,0,0,404.526,507.9Z" transform="translate(0 25.067)" fill="#c6a15b"/><path d="M401.745,507.1a1.275,1.275,0,0,0-1.434-1.1l-3.8.494a1.278,1.278,0,0,0,.16,2.545,1.056,1.056,0,0,0,.166-.011l3.806-.5A1.279,1.279,0,0,0,401.745,507.1Z" transform="translate(11.486 24.734)" fill="#c6a15b"/><path d="M403.52,508.119a1.22,1.22,0,0,0,.163-.011l2.958-.378a1.281,1.281,0,0,0-.326-2.541l-2.954.38a1.28,1.28,0,0,0,.159,2.549Z" transform="translate(14.359 24.395)" fill="#c6a15b"/><path d="M409.471,507.314a1.283,1.283,0,0,0,.165-.008l2.109-.27a1.279,1.279,0,0,0-.325-2.538l-2.108.27a1.278,1.278,0,0,0,.159,2.547Z" transform="translate(16.854 24.105)" fill="#c6a15b"/><path d="M455.411,501.318a1.281,1.281,0,0,0,1.268,1.113,1.312,1.312,0,0,0,.165-.011l33.965-4.395a1.279,1.279,0,1,0-.331-2.537l-33.964,4.4A1.276,1.276,0,0,0,455.411,501.318Z" transform="translate(36.656 20.327)" fill="#c6a15b"/><path d="M454.183,499.032l-3.8.491a1.278,1.278,0,0,0,.165,2.545c.052,0,.111,0,.167-.007l3.8-.494a1.278,1.278,0,0,0-.332-2.535Z" transform="translate(34.084 21.812)" fill="#c6a15b"/><path d="M447.09,499.915l-2.958.389a1.277,1.277,0,0,0,.162,2.544,1.335,1.335,0,0,0,.168-.01l2.957-.388a1.278,1.278,0,1,0-.328-2.535Z" transform="translate(31.462 22.181)" fill="#c6a15b"/><path d="M440.889,500.689l-2.112.27a1.279,1.279,0,0,0,.16,2.548c.055,0,.111,0,.167-.01l2.107-.273a1.277,1.277,0,0,0,1.107-1.428A1.3,1.3,0,0,0,440.889,500.689Z" transform="translate(29.215 22.508)" fill="#c6a15b"/><path d="M369.156,497.771l33.945,4.551a1.69,1.69,0,0,0,.17.009,1.277,1.277,0,0,0,.167-2.542L369.5,495.236a1.279,1.279,0,0,0-.339,2.535Z" transform="translate(0.015 20.219)" fill="#c6a15b"/><path d="M395.424,500a1.278,1.278,0,0,0,1.1,1.435l3.8.508c.057,0,.115.011.173.011a1.278,1.278,0,0,0,.166-2.545l-3.8-.51A1.28,1.28,0,0,0,395.424,500Z" transform="translate(11.493 21.757)" fill="#c6a15b"/><path d="M407.755,501.655a1.278,1.278,0,0,0-1.1-1.437l-2.954-.4a1.279,1.279,0,0,0-.339,2.535l2.954.4a1.357,1.357,0,0,0,.173.011A1.281,1.281,0,0,0,407.755,501.655Z" transform="translate(14.365 22.141)" fill="#c6a15b"/><path d="M412.857,502.339a1.275,1.275,0,0,0-1.094-1.435l-2.112-.288a1.279,1.279,0,0,0-.339,2.535l2.111.284a1.41,1.41,0,0,0,.172.013A1.277,1.277,0,0,0,412.857,502.339Z" transform="translate(16.859 22.476)" fill="#c6a15b"/><path d="M490.772,511.486l-33.941-4.547a1.278,1.278,0,0,0-.342,2.534l33.947,4.547a1.4,1.4,0,0,0,.17.01,1.277,1.277,0,0,0,.166-2.544Z" transform="translate(36.648 25.129)" fill="#c6a15b"/><path d="M455.6,508.061a1.275,1.275,0,0,0-1.1-1.434l-3.8-.51a1.279,1.279,0,0,0-.339,2.535l3.8.508a1.182,1.182,0,0,0,.172.011A1.277,1.277,0,0,0,455.6,508.061Z" transform="translate(34.078 24.783)" fill="#c6a15b"/><path d="M448.512,507.109a1.277,1.277,0,0,0-1.1-1.434l-2.958-.395a1.279,1.279,0,0,0-.334,2.535l2.961.395a1.565,1.565,0,0,0,.168.01A1.284,1.284,0,0,0,448.512,507.109Z" transform="translate(31.457 24.432)" fill="#c6a15b"/><path d="M442.307,506.284a1.276,1.276,0,0,0-1.1-1.435l-2.111-.287a1.278,1.278,0,0,0-.338,2.534l2.105.283a.935.935,0,0,0,.173.016A1.282,1.282,0,0,0,442.307,506.284Z" transform="translate(29.212 24.132)" fill="#c6a15b"/><path d="M372.66,483.542l11.711,4.88,19.9,8.3a1.312,1.312,0,0,0,.49.1,1.278,1.278,0,0,0,.7-.21,1.249,1.249,0,0,0,.481-.579,1.273,1.273,0,0,0-.687-1.668l-19.9-8.3-11.708-4.883a1.279,1.279,0,1,0-.988,2.361Z" transform="translate(1.618 14.287)" fill="#c6a15b"/><path d="M398.627,491.706a1.279,1.279,0,0,0-.485,2.459l3.536,1.473v0h0a1.311,1.311,0,0,0,.491.1,1.277,1.277,0,0,0,.493-2.457l-3.542-1.475A1.274,1.274,0,0,0,398.627,491.706Z" transform="translate(12.308 18.743)" fill="#c6a15b"/><path d="M404.109,494.737c-.033.03-.051.082-.084.121a1.19,1.19,0,0,0-.2.29v0l0,.007a1.28,1.28,0,0,0,.691,1.671l2.016.832.735.308a1.27,1.27,0,0,0,1.669-.684v-.007a1.212,1.212,0,0,0,.07-.345c0-.048.028-.1.028-.149a1.28,1.28,0,0,0-.788-1.175l-.872-.363-1.877-.785A1.287,1.287,0,0,0,404.109,494.737Z" transform="translate(14.981 19.858)" fill="#c6a15b"/><path d="M486.583,528.267,477,524.274l-22.027-9.185a1.275,1.275,0,0,0-1.669.684h0l0,.007a1.281,1.281,0,0,0,.693,1.669l22.026,9.181,9.579,3.993a1.2,1.2,0,0,0,.488.1h.009a1.278,1.278,0,0,0,.491-2.457Z" transform="translate(35.734 28.51)" fill="#c6a15b"/><path d="M452.312,516.642a1.287,1.287,0,0,0,.7-.209,1.307,1.307,0,0,0,.483-.578,1.281,1.281,0,0,0-.691-1.671l-3.54-1.476a1.279,1.279,0,0,0-.982,2.362l3.536,1.472A1.259,1.259,0,0,0,452.312,516.642Z" transform="translate(33.34 27.512)" fill="#c6a15b"/><path d="M441.112,510.7h0v0a1.277,1.277,0,0,0-.688-1.669l-.622-.257-1.344-.562a1.273,1.273,0,0,0-1.668.687,1.251,1.251,0,0,0,0,.978,1.279,1.279,0,0,0,.69.7l1.34.556.622.26a1.246,1.246,0,0,0,.493.1A1.275,1.275,0,0,0,441.112,510.7Z" transform="translate(28.808 25.622)" fill="#c6a15b"/><path d="M389.772,478.447l17.071,13.166a1.281,1.281,0,0,0,1.793-.23h0a1.279,1.279,0,0,0-.23-1.8l-17.071-13.16-10.046-7.747a1.279,1.279,0,1,0-1.566,2.023Z" transform="translate(4.703 8.972)" fill="#c6a15b"/><path d="M403.153,485.538l0,0h0l-.013,0a1.215,1.215,0,0,0-.443-.217,1.278,1.278,0,0,0-1.109,2.247l3.038,2.336h0v0a1.272,1.272,0,0,0,.779.268,1.281,1.281,0,0,0,.785-2.294Z" transform="translate(13.875 16.044)" fill="#c6a15b"/><path d="M469.662,536.811l-18.591-14.334a1.278,1.278,0,0,0-1.793.233v0h0a1.28,1.28,0,0,0,.229,1.794L468.1,538.838l8.527,6.575a1.267,1.267,0,0,0,.782.265h0a1.257,1.257,0,0,0,1.009-.5,1.271,1.271,0,0,0-.229-1.791Z" transform="translate(33.975 31.54)" fill="#c6a15b"/><path d="M444.609,520.732l3.036,2.335a1.275,1.275,0,0,0,.779.268h0a1.279,1.279,0,0,0,.782-2.292L446.17,518.7a1.279,1.279,0,0,0-1.9,1.642A1.309,1.309,0,0,0,444.609,520.732Z" transform="translate(31.921 29.956)" fill="#c6a15b"/><path d="M439.621,516.881l1.286.988,1.069.829a1.265,1.265,0,0,0,.782.268h0a1.277,1.277,0,0,0,.779-2.292l-1.313-1.009-1.046-.813a1.3,1.3,0,0,0-.95-.253l-.007.006a1.231,1.231,0,0,0-.456.151c-.027.014-.04.038-.067.054a1.361,1.361,0,0,0-.315.274v.006h0a1.221,1.221,0,0,0-.126.26,1.091,1.091,0,0,0-.094.192A1.271,1.271,0,0,0,439.621,516.881Z" transform="translate(29.827 28.341)" fill="#c6a15b"/><path d="M437.8,515.149a1.274,1.274,0,0,0,1.014-.5h0a1.6,1.6,0,0,0,.116-.239,1.523,1.523,0,0,0,.105-.217.93.93,0,0,0,.009-.122,1.29,1.29,0,0,0,.021-.369c0-.043-.03-.082-.038-.129a1.343,1.343,0,0,0-.118-.335,1.263,1.263,0,0,0-.233-.273c-.035-.035-.054-.079-.094-.107h0l-.007,0-.187-.146-1.493-1.155a1.275,1.275,0,0,0-1.79.233l0,0h0l0,.006a1.256,1.256,0,0,0-.219.451c-.006.018,0,.044,0,.068a1.3,1.3,0,0,0-.027.419,1.2,1.2,0,0,0,.148.441c0,.008,0,.011.007.018a1.3,1.3,0,0,0,.334.39l1.032.795.65.5A1.266,1.266,0,0,0,437.8,515.149Z" transform="translate(28.034 26.959)" fill="#c6a15b"/><path d="M398.6,471.559l12.056,15.787a1.27,1.27,0,0,0,1.79.243l0,0h0a1.277,1.277,0,0,0,.241-1.791l-18.72-24.514-2.062-2.7h0c-.031-.043-.075-.06-.112-.1a1.288,1.288,0,0,0-.271-.236,1.278,1.278,0,0,0-1.649,1.885Z" transform="translate(9.059 4.637)" fill="#c6a15b"/><path d="M408.663,480.522a1.222,1.222,0,0,0-.385-.332,1.277,1.277,0,0,0-1.649,1.884l2.325,3.042.006,0h0a1.277,1.277,0,0,0,.447.368l.009,0a1.247,1.247,0,0,0,.559.133,1.279,1.279,0,0,0,1.015-2.054Z" transform="translate(16.087 13.841)" fill="#c6a15b"/><path d="M411.06,485.767a1.282,1.282,0,0,0-.24,1.794l1.094,1.432.717.937a1.277,1.277,0,0,0,2.251-1.1,1.3,1.3,0,0,0-.2-.422.112.112,0,0,1-.016-.036h0l0,0-.375-.49-1.434-1.875A1.275,1.275,0,0,0,411.06,485.767Z" transform="translate(17.845 16.142)" fill="#c6a15b"/><path d="M458.65,545.977l-13.263-17.369a1.278,1.278,0,0,0-1.791-.243,1.309,1.309,0,0,0-.335.385,1.288,1.288,0,0,0,.091,1.414l19.008,24.886,1.776,2.327h0v0a1.361,1.361,0,0,0,.193.155,1.139,1.139,0,0,0,.265.214,1.265,1.265,0,0,0,1.334-.131,1.283,1.283,0,0,0,.241-1.794Z" transform="translate(31.493 34.011)" fill="#c6a15b"/><path d="M439.6,525.248l2.327,3.045a1.279,1.279,0,0,0,1.018.5h0a1.28,1.28,0,0,0,1.015-2.058l-2.331-3.046a1.279,1.279,0,0,0-2.031,1.556Z" transform="translate(29.917 31.95)" fill="#c6a15b"/><path d="M434.8,518.138a1.253,1.253,0,0,0,.772-.258l0,0h0a1.2,1.2,0,0,0,.119-.133,1.49,1.49,0,0,0,.211-.246,1.28,1.28,0,0,0-.091-1.414l-.644-.845-.647-.847a1.274,1.274,0,0,0-2.125.146.867.867,0,0,0-.05.148,1.07,1.07,0,0,0-.1.312,1.263,1.263,0,0,0,.25.95l1.29,1.691A1.271,1.271,0,0,0,434.8,518.138Z" transform="translate(26.938 28.048)" fill="#c6a15b"/><path d="M415.281,477.1a1.278,1.278,0,0,0-2.363.972l1.458,3.543h0v0a1.279,1.279,0,0,0,1.18.791,1.341,1.341,0,0,0,.488-.1,1.278,1.278,0,0,0,.693-1.669Z" transform="translate(18.795 12.287)" fill="#c6a15b"/><path d="M417.828,490.01l.808,1.97a1.283,1.283,0,0,0,1.185.792,1.3,1.3,0,0,0,.91-.383l.01-.018a1.329,1.329,0,0,0,.26-.386,1.28,1.28,0,0,0,0-.982l-.809-1.963a1.267,1.267,0,0,0-1.17-.789,1.241,1.241,0,0,0-.5.091A1.283,1.283,0,0,0,417.828,490.01Z" transform="translate(20.856 17.294)" fill="#c6a15b"/><path d="M433.591,528.313l1.459,3.544a1.28,1.28,0,0,0,1.18.792h0a1.279,1.279,0,0,0,1.182-1.766l-1.464-3.547a1.278,1.278,0,0,0-2.46.477A1.319,1.319,0,0,0,433.591,528.313Z" transform="translate(27.466 33.358)" fill="#c6a15b"/><path d="M431.523,523.291l.8,1.943a1.265,1.265,0,0,0,.487.583,1.25,1.25,0,0,0,.7.216,1.277,1.277,0,0,0,1.181-1.767l-.324-.784-.808-1.972a1.277,1.277,0,0,0-1.666-.7,1.372,1.372,0,0,0-.426.287,1.044,1.044,0,0,0-.1.142,1.341,1.341,0,0,0-.17.263,1.261,1.261,0,0,0-.007.982Z" transform="translate(26.461 30.912)" fill="#c6a15b"/><path d="M431.612,520.151h0a.831.831,0,0,0,.141-.094,1.319,1.319,0,0,0,.282-.189l.011-.014a1.282,1.282,0,0,0,.264-1.37l-.809-1.972a1.279,1.279,0,0,0-2.366.972l.811,1.97a1.276,1.276,0,0,0,1.181.792,1.239,1.239,0,0,0,.484-.1Z" transform="translate(25.599 28.818)" fill="#c6a15b"/><path d="M427.831,527.539a1.337,1.337,0,0,0,.167-.011,1.277,1.277,0,0,0,1.1-1.429l-.177-1.381-.2-1.577a1.443,1.443,0,0,0-.153-.45.185.185,0,0,0-.011-.033.875.875,0,0,0-.1-.106,1.228,1.228,0,0,0-.226-.257,1.245,1.245,0,0,0-.943-.26h0a1.129,1.129,0,0,0-.241.084,1.18,1.18,0,0,0-.236.079,1.274,1.274,0,0,0-.627,1.269l.23,1.78.151,1.171a1.283,1.283,0,0,0,1.266,1.121Z" transform="translate(24.396 31.46)" fill="#c6a15b"/><path d="M427.193,521.324a1.275,1.275,0,0,0,1.106-1.431h0l-.065-.527-.207-1.587a.88.88,0,0,0-.058-.169,1.266,1.266,0,0,0-2.477.5h0v0l.2,1.581.07.528a1.277,1.277,0,0,0,1.263,1.113A1.259,1.259,0,0,0,427.193,521.324Z" transform="translate(24.106 29.215)" fill="#c6a15b"/><path d="M452.149,520.323l10.178,5.872,7.306,4.219a.627.627,0,0,0,.317.088.6.6,0,0,0,.317-.088.623.623,0,0,0,.243-.236.637.637,0,0,0-.237-.872l-7.3-4.219-10.178-5.877a.639.639,0,0,0-.873.237.631.631,0,0,0-.064.483A.642.642,0,0,0,452.149,520.323Z" transform="translate(35.159 30.245)" fill="#c6a15b"/><path d="M444.557,514.456l-1.72-.991-.862-.5a.639.639,0,0,0-.935.72.635.635,0,0,0,.3.392l2.581,1.488a.624.624,0,0,0,.321.085.64.64,0,0,0,.554-.319.659.659,0,0,0,.064-.485A.652.652,0,0,0,444.557,514.456Z" transform="translate(30.623 27.626)" fill="#c6a15b"/><path d="M439.192,512.742a.641.641,0,0,0,.554-.318.633.633,0,0,0,.062-.488.614.614,0,0,0-.3-.386l-2.216-1.285a.64.64,0,0,0-.639,1.109h0v0l2.214,1.279A.622.622,0,0,0,439.192,512.742Z" transform="translate(28.66 26.493)" fill="#c6a15b"/><path d="M384.417,481.212l4.371,2.521,13.112,7.573a.628.628,0,0,0,.318.084.639.639,0,0,0,.555-.317.652.652,0,0,0,.064-.484.636.636,0,0,0-.3-.392l-13.113-7.571-4.372-2.52a.636.636,0,0,0-.872.233.65.65,0,0,0-.064.484A.639.639,0,0,0,384.417,481.212Z" transform="translate(6.747 13.841)" fill="#c6a15b"/><path d="M405.727,493.52l2.583,1.49a.664.664,0,0,0,.319.082.651.651,0,0,0,.556-.317.643.643,0,0,0-.238-.876l-.344-.2-2.237-1.292a.642.642,0,0,0-.873.236.628.628,0,0,0-.064.484A.656.656,0,0,0,405.727,493.52Z" transform="translate(15.686 19.004)" fill="#c6a15b"/><path d="M410.429,495.493a.636.636,0,0,0-.061.488.645.645,0,0,0,.294.388l2.219,1.283a.628.628,0,0,0,.321.085.639.639,0,0,0,.318-1.192h0l0,0-2.212-1.28A.637.637,0,0,0,410.429,495.493Z" transform="translate(17.756 20.197)" fill="#c6a15b"/><path d="M446.932,526.845l8.568,8.565,5.706,5.708a.639.639,0,0,0,.451.19h0a.642.642,0,0,0,.453-1.093l-5.711-5.708-8.567-8.566a.639.639,0,0,0-1.09.453A.626.626,0,0,0,446.932,526.845Z" transform="translate(33.025 33.025)" fill="#c6a15b"/><path d="M391.63,471.541l3.569,3.567L405.9,485.815a.641.641,0,0,0,.906,0,.655.655,0,0,0,0-.908L396.1,474.2l-3.57-3.569a.637.637,0,0,0-.9,0,.627.627,0,0,0-.187.453A.641.641,0,0,0,391.63,471.541Z" transform="translate(9.828 9.826)" fill="#c6a15b"/><path d="M447.488,541.858l-6.175-10.7a.643.643,0,0,0-.873-.236l-.006,0h0a.645.645,0,0,0-.233.876l6.18,10.7,3.915,6.782a.643.643,0,0,0,.556.319h0a.638.638,0,0,0,.552-.958Z" transform="translate(30.245 35.158)" fill="#c6a15b"/><path d="M436.559,522.921l-.745-1.289-.744-1.289a.638.638,0,0,0-.873-.233.629.629,0,0,0-.3.387.641.641,0,0,0,.061.484l.745,1.289.745,1.292a.643.643,0,0,0,.876.234.655.655,0,0,0,.3-.388A.644.644,0,0,0,436.559,522.921Z" transform="translate(27.627 30.622)" fill="#c6a15b"/><path d="M401.1,464.063l1.563,2.706,8.531,14.78a.643.643,0,0,0,.554.317.61.61,0,0,0,.318-.087h.006a.638.638,0,0,0,.233-.873l-8.534-14.772-1.561-2.708a.639.639,0,0,0-.873-.234.639.639,0,0,0-.236.873Z" transform="translate(13.843 6.745)" fill="#c6a15b"/><path d="M413.4,485.378l1.488,2.578a.643.643,0,0,0,.556.319.613.613,0,0,0,.318-.084.64.64,0,0,0,.236-.874l-1.492-2.582a.64.64,0,0,0-1.106.643Z" transform="translate(19.004 15.685)" fill="#c6a15b"/><path d="M418.64,491.886l-1.278-2.213a.637.637,0,0,0-.874-.236.647.647,0,0,0-.237.874l1.278,2.217a.652.652,0,0,0,.556.318.664.664,0,0,0,.321-.084.641.641,0,0,0,.294-.39A.627.627,0,0,0,418.64,491.886Z" transform="translate(20.2 17.755)" fill="#c6a15b"/><path d="M429.356,523.388l.608,2.266a.639.639,0,0,0,.617.474.63.63,0,0,0,.554-.317.636.636,0,0,0,.067-.488l-.775-2.876a.639.639,0,1,0-1.235.328h0v0Z" transform="translate(25.653 31.439)" fill="#c6a15b"/><path d="M413.181,463.016l4.226,15.775a.639.639,0,0,0,.616.474.627.627,0,0,0,.163-.021.638.638,0,0,0,.456-.788l-4.769-17.793-.457-1.7a.648.648,0,0,0-.782-.453.636.636,0,0,0-.449.784v0h0Z" transform="translate(18.519 4.81)" fill="#c6a15b"/><path d="M419.937,486.413h0a.748.748,0,0,0,.166-.02.638.638,0,0,0,.449-.782l-.771-2.88a.647.647,0,0,0-.779-.454H419a.641.641,0,0,0-.449.786l.769,2.877A.636.636,0,0,0,419.937,486.413Z" transform="translate(21.19 14.781)" fill="#c6a15b"/><path d="M421.261,488.236a.639.639,0,0,0-1.235.328v0h0l.664,2.468a.636.636,0,0,0,.616.477,1.062,1.062,0,0,0,.163-.018.644.644,0,0,0,.453-.786h0Z" transform="translate(21.809 17.09)" fill="#c6a15b"/><path d="M424.309,485.593a.631.631,0,0,0,.453.186.638.638,0,0,0,.639-.64V482.16a.64.64,0,0,0-.639-.639h0a.64.64,0,0,0-.639.639v2.979A.644.644,0,0,0,424.309,485.593Z" transform="translate(23.535 14.471)" fill="#c6a15b"/><path d="M418.188,534.053a.649.649,0,0,0-.782.453l-5.225,19.5a.64.64,0,0,0,.451.782.725.725,0,0,0,.165.021.636.636,0,0,0,.617-.474l5.227-19.5A.642.642,0,0,0,418.188,534.053Z" transform="translate(18.517 36.499)" fill="#c6a15b"/><path d="M419.324,522.446l-.769,2.876a.638.638,0,0,0,.453.785.627.627,0,0,0,.163.02.636.636,0,0,0,.616-.474l.768-2.879a.635.635,0,0,0-.449-.782A.65.65,0,0,0,419.324,522.446Z" transform="translate(21.191 31.44)" fill="#c6a15b"/><path d="M420.479,520.481a.6.6,0,0,0,.165.023.641.641,0,0,0,.617-.474l.661-2.473a.639.639,0,0,0-.453-.781.647.647,0,0,0-.779.453l-.664,2.467A.642.642,0,0,0,420.479,520.481Z" transform="translate(21.809 29.252)" fill="#c6a15b"/><path d="M432.879,479.239a.5.5,0,0,0,.163.026.64.64,0,0,0,.617-.477l5.221-19.494a.639.639,0,0,0-.45-.786.647.647,0,0,0-.781.454l-5.224,19.5A.631.631,0,0,0,432.879,479.239Z" transform="translate(27.01 4.81)" fill="#c6a15b"/><path d="M429.807,486.413a.643.643,0,0,0,.619-.473l.771-2.877a.642.642,0,0,0-.451-.786.654.654,0,0,0-.782.451l-.772,2.879a.639.639,0,0,0,.453.782A.651.651,0,0,0,429.807,486.413Z" transform="translate(25.653 14.781)" fill="#c6a15b"/><path d="M429.238,487.784a.647.647,0,0,0-.781.453l-.663,2.471a.639.639,0,0,0,.453.782.719.719,0,0,0,.166.018.633.633,0,0,0,.613-.473l.661-2.471A.636.636,0,0,0,429.238,487.784Z" transform="translate(25.067 17.09)" fill="#c6a15b"/><path d="M412.065,530.922a.64.64,0,0,0-.873.236L401.1,548.64a.64.64,0,0,0,1.109.639L412.3,531.8A.643.643,0,0,0,412.065,530.922Z" transform="translate(13.842 35.158)" fill="#c6a15b"/><path d="M414.891,520.344l-1.488,2.578a.645.645,0,0,0,.234.876.631.631,0,0,0,.321.085.638.638,0,0,0,.554-.319L416,520.982a.64.64,0,0,0-1.11-.639Z" transform="translate(19.005 30.622)" fill="#c6a15b"/><path d="M416.805,518.838a.647.647,0,0,0,.558-.319l1.278-2.214a.642.642,0,0,0-1.111-.642l-1.278,2.217a.642.642,0,0,0,.237.872A.586.586,0,0,0,416.805,518.838Z" transform="translate(20.199 28.659)" fill="#c6a15b"/><path d="M440.44,481.777a.611.611,0,0,0,.319.087.645.645,0,0,0,.554-.317L451.4,464.062a.64.64,0,0,0-1.109-.639L440.2,480.908A.638.638,0,0,0,440.44,481.777Z" transform="translate(30.247 6.746)" fill="#c6a15b"/><path d="M434.513,488.275a.642.642,0,0,0,.554-.322l1.492-2.579a.64.64,0,0,0-1.109-.639l-1.489,2.578a.641.641,0,0,0,.233.876A.675.675,0,0,0,434.513,488.275Z" transform="translate(27.627 15.685)" fill="#c6a15b"/><path d="M432.538,489.673l-1.279,2.213a.643.643,0,0,0,.236.873.623.623,0,0,0,.318.088.656.656,0,0,0,.558-.322l1.276-2.216a.639.639,0,1,0-1.109-.636Z" transform="translate(26.494 17.755)" fill="#c6a15b"/><path d="M405.9,525.94l-14.276,14.274a.642.642,0,0,0,.453,1.093.632.632,0,0,0,.451-.19l14.278-14.274a.64.64,0,1,0-.907-.9Z" transform="translate(9.827 33.025)" fill="#c6a15b"/><path d="M412.041,517.11a.639.639,0,0,0-.9,0l-2.1,2.109a.638.638,0,0,0,.449,1.09.645.645,0,0,0,.454-.186l2.105-2.111A.64.64,0,0,0,412.041,517.11Z" transform="translate(17.127 29.321)" fill="#c6a15b"/><path d="M413.513,516.192a.636.636,0,0,0,.451-.19l1.811-1.808a.64.64,0,0,0-.907-.9l-1.81,1.81a.641.641,0,0,0,.454,1.092Z" transform="translate(18.817 27.719)" fill="#c6a15b"/><path d="M447.836,485.815l14.274-14.274a.64.64,0,1,0-.9-.906l-14.271,14.276a.638.638,0,1,0,.9.9Z" transform="translate(33.026 9.826)" fill="#c6a15b"/><path d="M438.1,491.045a.643.643,0,0,0,.9,0l2.105-2.105a.638.638,0,1,0-.9-.9l-2.107,2.105A.637.637,0,0,0,438.1,491.045Z" transform="translate(29.322 17.126)" fill="#c6a15b"/><path d="M436.094,492.065l-1.811,1.813a.639.639,0,0,0,.9.9L437,492.969a.639.639,0,1,0-.9-.9Z" transform="translate(27.719 18.816)" fill="#c6a15b"/><path d="M401.9,519.211l-17.484,10.1a.636.636,0,0,0,.318,1.19.6.6,0,0,0,.319-.085l17.486-10.092a.639.639,0,0,0-.64-1.107Z" transform="translate(6.746 30.245)" fill="#c6a15b"/><path d="M406.047,515.654a.621.621,0,0,0,.321-.088l2.579-1.489a.639.639,0,1,0-.64-1.107l-2.578,1.489a.641.641,0,0,0,.318,1.2Z" transform="translate(15.687 27.626)" fill="#c6a15b"/><path d="M410.984,512.741a.627.627,0,0,0,.321-.087l2.214-1.279a.639.639,0,1,0-.639-1.107l-2.219,1.28a.639.639,0,0,0,.322,1.192Z" transform="translate(17.756 26.493)" fill="#c6a15b"/><path d="M452.789,491.309l17.481-10.1a.638.638,0,1,0-.637-1.106L452.149,490.2a.64.64,0,1,0,.64,1.109Z" transform="translate(35.159 13.841)" fill="#c6a15b"/><path d="M443.918,492.409l-2.583,1.49a.638.638,0,0,0,.322,1.191.621.621,0,0,0,.318-.087l2.582-1.49a.638.638,0,0,0-.639-1.1Z" transform="translate(30.622 19.003)" fill="#c6a15b"/><path d="M438.873,495.261l-2.216,1.28a.639.639,0,0,0,.319,1.192.622.622,0,0,0,.319-.087l2.216-1.279a.639.639,0,1,0-.639-1.107Z" transform="translate(28.66 20.197)" fill="#c6a15b"/><path d="M399.454,511.429l-19.5,5.224a.641.641,0,0,0,.166,1.259,1.071,1.071,0,0,0,.163-.02l19.5-5.228a.643.643,0,0,0,.453-.785A.65.65,0,0,0,399.454,511.429Z" transform="translate(4.809 27.009)" fill="#c6a15b"/><path d="M403.889,510.228a.71.71,0,0,0,.163-.02l2.882-.771a.64.64,0,0,0-.334-1.236l-2.876.772a.638.638,0,0,0,.165,1.255Z" transform="translate(14.781 25.653)" fill="#c6a15b"/><path d="M411.7,506.8l-2.471.66a.639.639,0,1,0,.328,1.235l2.474-.66a.639.639,0,1,0-.331-1.235Z" transform="translate(17.089 25.068)" fill="#c6a15b"/><path d="M455.83,497.649l19.5-5.227a.638.638,0,0,0-.324-1.233l-19.5,5.226a.639.639,0,0,0,.165,1.255A.64.64,0,0,0,455.83,497.649Z" transform="translate(36.5 18.518)" fill="#c6a15b"/><path d="M443.6,499.583a.633.633,0,0,0,.162-.02l2.882-.771a.639.639,0,0,0-.331-1.235l-2.877.769a.639.639,0,0,0,.165,1.256Z" transform="translate(31.44 21.189)" fill="#c6a15b"/><path d="M438.386,500.953a.66.66,0,0,0,.163-.024l2.474-.663a.638.638,0,0,0,.453-.782.649.649,0,0,0-.781-.454l-2.474.666a.64.64,0,0,0,.165,1.258Z" transform="translate(29.251 21.808)" fill="#c6a15b"/><path d="M378.543,503.129a.638.638,0,1,0,0,1.276h20.189a.638.638,0,1,0,0-1.276Z" transform="translate(4.149 23.535)" fill="#c6a15b"/><path d="M403.154,503.129a.639.639,0,0,0,0,1.279h2.978a.639.639,0,1,0,0-1.279Z" transform="translate(14.472 23.535)" fill="#c6a15b"/><path d="M408.85,503.129a.639.639,0,0,0,0,1.279h2.562a.639.639,0,0,0,0-1.279Z" transform="translate(16.862 23.535)" fill="#c6a15b"/><path d="M456.755,503.129a.639.639,0,0,0,0,1.279h20.191a.639.639,0,0,0,0-1.279Z" transform="translate(36.956 23.535)" fill="#c6a15b"/><path d="M447.249,504.406a.638.638,0,1,0,0-1.276l-2.978,0a.639.639,0,1,0,0,1.279Z" transform="translate(31.718 23.534)" fill="#c6a15b"/><path d="M441.425,503.129h-2.558a.638.638,0,1,0,0,1.276h2.558a.638.638,0,1,0,0-1.276Z" transform="translate(29.452 23.535)" fill="#c6a15b"/><path d="M399.782,496.412l-19.5-5.224a.638.638,0,0,0-.328,1.233l19.5,5.222a.605.605,0,0,0,.165.023.638.638,0,0,0,.165-1.255Z" transform="translate(4.81 18.518)" fill="#c6a15b"/><path d="M406.934,498.328l-2.882-.772a.65.65,0,0,0-.778.453.64.64,0,0,0,.45.786l2.876.766a.677.677,0,0,0,.167.02.638.638,0,0,0,.166-1.253Z" transform="translate(14.781 21.19)" fill="#c6a15b"/><path d="M411.7,500.932a.755.755,0,0,0,.166.02.638.638,0,0,0,.165-1.255l-2.474-.664a.651.651,0,0,0-.782.454.637.637,0,0,0,.454.781Z" transform="translate(17.089 21.809)" fill="#c6a15b"/><path d="M455.5,512.667l19.5,5.225a.776.776,0,0,0,.162.02.64.64,0,0,0,.162-1.259l-19.5-5.224a.651.651,0,0,0-.779.453A.636.636,0,0,0,455.5,512.667Z" transform="translate(36.5 27.009)" fill="#c6a15b"/><path d="M446.648,508.969l-2.882-.771a.638.638,0,0,0-.326,1.234l2.877.771a.606.606,0,0,0,.166.021.638.638,0,0,0,.165-1.255Z" transform="translate(31.44 25.652)" fill="#c6a15b"/><path d="M438.549,506.8a.639.639,0,0,0-.328,1.235l2.474.664a.645.645,0,0,0,.781-.453.641.641,0,0,0-.453-.785Z" transform="translate(29.251 25.066)" fill="#c6a15b"/><path d="M409.931,488.037a.635.635,0,0,0-1.087.453.634.634,0,0,0,.183.453L410.085,490l1.052,1.05h0a.638.638,0,0,0,.9-.9l-1.056-1.055Z" transform="translate(17.127 17.126)" fill="#c6a15b"/><path d="M413.059,492.971l1.81,1.813a.641.641,0,0,0,.907-.906h-.006l-1.806-1.813a.637.637,0,0,0-1.09.453A.635.635,0,0,0,413.059,492.971Z" transform="translate(18.818 18.816)" fill="#c6a15b"/><path d="M440.209,520.124a.642.642,0,0,0,.454.186.636.636,0,0,0,.451-.186.644.644,0,0,0,.186-.454.631.631,0,0,0-.186-.453l-1.053-1.052-1.055-1.055a.64.64,0,0,0-.9.906l1.055,1.053Z" transform="translate(29.323 29.321)" fill="#c6a15b"/><path d="M437,515.1l-1.811-1.808a.639.639,0,0,0-.9.9l0,0L436.094,516a.631.631,0,0,0,.451.19A.644.644,0,0,0,437,516a.634.634,0,0,0,.185-.45A.654.654,0,0,0,437,515.1Z" transform="translate(27.719 27.719)" fill="#c6a15b"/><path d="M433.646,517.878l-1.276-2.214a.638.638,0,0,0-1.171.156.636.636,0,0,0,.06.485l1.279,2.214a.642.642,0,0,0,.555.319.6.6,0,0,0,.319-.087.631.631,0,0,0,.3-.388A.654.654,0,0,0,433.646,517.878Z" transform="translate(26.494 28.659)" fill="#c6a15b"/><path d="M433.66,534.506a.646.646,0,0,0-.782-.453.645.645,0,0,0-.454.785l3.232,12.053,2,7.447a.612.612,0,0,0,.231.345.635.635,0,0,0,.386.129.725.725,0,0,0,.165-.021.643.643,0,0,0,.454-.786l-2.454-9.136Z" transform="translate(27.008 36.499)" fill="#c6a15b"/><path d="M429.027,517.226a.638.638,0,1,0-1.232.332h0l.663,2.473a.639.639,0,0,0,.616.474.6.6,0,0,0,.165-.023.639.639,0,0,0,.45-.785h0Z" transform="translate(25.067 29.25)" fill="#c6a15b"/><path d="M425.4,457.55a.639.639,0,0,0-1.279,0v20.186a.638.638,0,0,0,.64.64.644.644,0,0,0,.642-.64l0-20.185Z" transform="translate(23.535 4.149)" fill="#c6a15b"/><path d="M425.4,490.417v-2.558a.639.639,0,0,0-1.279,0v2.558h0a.639.639,0,1,0,1.279,0Z" transform="translate(23.535 16.863)" fill="#c6a15b"/><path d="M424.762,535.123a.64.64,0,0,0-.642.643v20.186a.639.639,0,0,0,1.279,0h0V535.762A.639.639,0,0,0,424.762,535.123Z" transform="translate(23.535 36.955)" fill="#c6a15b"/><path d="M425.4,523.274a.64.64,0,0,0-1.092-.45c-.035.036-.028.094-.057.135a.632.632,0,0,0-.131.315v2.979a.64.64,0,0,0,.64.64h0a.639.639,0,0,0,.64-.64l0-2.977Z" transform="translate(23.535 31.718)" fill="#c6a15b"/><path d="M424.761,517.233a.64.64,0,0,0-.64.64v2.558h0a.639.639,0,0,0,1.279,0h0v-2.558A.64.64,0,0,0,424.761,517.233Z" transform="translate(23.535 29.451)" fill="#c6a15b"/></g></svg>