<svg xmlns="http://www.w3.org/2000/svg" width="259.107" height="100.831" viewBox="0 0 259.107 100.831"><g transform="translate(-44.214 -27.914)"><g transform="translate(109.743 88.053)"><path d="M163.8,127a3.4,3.4,0,0,1,1.9,3.375c-.007,3.153-2.538,7.405-5.119,8.618-1.627.764-2.478.241-2.907-.184a2.646,2.646,0,0,1-.481-2.868.478.478,0,1,1,.869.4,1.7,1.7,0,0,0,.286,1.788c.487.484,1.331.231,1.826,0,1.992-.936,4.563-4.873,4.569-7.754a2.561,2.561,0,0,0-1.358-2.509c-3.023-1.437-7.543,1.971-10.661,7.863-2.155,4.072-2.982,8.118-2.166,10.732A4.183,4.183,0,0,0,152.587,149c1.8.932,4.717.814,6.634-2.585a.478.478,0,0,1,.833.47c-1.468,2.6-3.438,3.585-5.364,3.585a5.582,5.582,0,0,1-2.544-.621,5.022,5.022,0,0,1-2.5-3.11c-.9-2.9-.107-7.042,2.234-11.464,3.546-6.7,8.375-9.964,11.917-8.281Z" transform="translate(-149.285 -125.165)" fill="#f5f6f1" stroke="rgba(0,0,0,0)" stroke-width="1"/><path d="M181.568,156.475a.444.444,0,0,1,.122.665c-1.589,2.306-2.992,3.54-4.346,3.54a3.2,3.2,0,0,1-.553-.063l-.038-.032a2.052,2.052,0,0,1-1.162-1.191,2.363,2.363,0,0,1-.151-.679,4.676,4.676,0,0,1-3.27,1.934,1.759,1.759,0,0,1-.818-.192c-.44-.224-1.3-.882-.726-2.946a7.128,7.128,0,0,1,1.958-3.057c1.238-1.247,2.841-1.712,3.849-1.207a1.729,1.729,0,0,1,.855.934c.147-.278.3-.567.453-.859a.478.478,0,1,1,.846.445c-.469.892-.919,1.742-1.26,2.385-.208.393-.376.709-.48.909a2.617,2.617,0,0,0-.363,1.991.872.872,0,0,0,.838.647c.871,0,2.208-1.108,3.581-3.1a.444.444,0,0,1,.665-.123Zm-6.684,1.41a23.828,23.828,0,0,0,1.493-2.23l.076-.17c.048-.345.076-1.117-.45-1.382a1.223,1.223,0,0,0-.514-.109,3.528,3.528,0,0,0-2.227,1.136,6.287,6.287,0,0,0-1.716,2.634c-.257.943-.1,1.673.24,1.844.455.229,1.826-.126,3.1-1.722Z" transform="translate(-157.282 -135.181)" fill="#f5f6f1" stroke="rgba(0,0,0,0)" stroke-width="1"/><path d="M199.6,127.645a.754.754,0,0,1,.63.764c.189,2.422-3.323,7.321-6.693,11.8-.2.264-.38.506-.536.715a64.452,64.452,0,0,1-4.675,5.734,4.81,4.81,0,0,0,.261,2.844,1.142,1.142,0,0,0,1.042.546c2.02,0,3.525-2.394,3.792-2.847a.478.478,0,1,1,.825.484c-.474.808-2.143,3.316-4.616,3.316A1.979,1.979,0,0,1,187.769,150c-.659-1.1-.646-2.995.076-5.774a29.664,29.664,0,0,1,2.283-5.974c3.174-5.943,7.8-10.957,9.475-10.6Zm-.324.98c-.719.054-4.685,3.292-8.307,10.074a50.943,50.943,0,0,0-2.456,6.409l1.093-1.367c.782-.954,1.642-2.064,2.627-3.385.156-.21.338-.451.539-.719,1.79-2.379,6.563-8.726,6.5-11.011Z" transform="translate(-163.656 -125.569)" fill="#f5f6f1" stroke="rgba(0,0,0,0)" stroke-width="1"/><path d="M199.346,150.854a.443.443,0,0,1,.152.659,12.394,12.394,0,0,0-1.782,4.458,1.214,1.214,0,0,0,.275.879,1.608,1.608,0,0,0,1.1.4c.852,0,2.333-.84,3.6-3.044a.478.478,0,0,1,.829.477c-1.3,2.253-2.922,3.521-4.431,3.521a2.455,2.455,0,0,1-1.793-.693,1.926,1.926,0,0,1-.522-1.586c.1-1.975,1.834-4.8,1.91-4.918a.445.445,0,0,1,.659-.152Zm1.535-4.272a.676.676,0,0,1,.668.626.79.79,0,0,1-.806.715.673.673,0,0,1-.687-.626.617.617,0,0,1,.274-.537.813.813,0,0,1,.55-.178Z" transform="translate(-167.24 -132.736)" fill="#f5f6f1" stroke="rgba(0,0,0,0)" stroke-width="1"/><path d="M214.815,124.38c.287.1,1.029.455.765,1.941-.584,3.289-6.623,11.424-6.882,11.771a65.5,65.5,0,0,1-7.055,8.345.584.584,0,0,1,.028.183,2.169,2.169,0,0,0,2.264,2.249c1.2,0,2.443-1.117,3.584-3.134a.478.478,0,0,1,.833.471c-1.409,2.492-2.809,3.611-4.417,3.611a3.176,3.176,0,0,1-3.168-2.58c-.745,1.324-1.5,2.752-2.227,4.145-2.683,5.079-5.175,9.838-6.74,12.872a.474.474,0,0,1-.447.256.821.821,0,0,1-.224-.064.442.442,0,0,1-.192-.639c1.565-3,4.088-7.794,6.739-12.873,3.6-6.8,7.316-13.847,9.33-17.765,3.163-6.152,6.148-9.348,7.808-8.789Zm-1.136,1.181c-1.05.678-3.1,2.743-5.823,8.045-1.116,2.172-4.026,7.8-5.875,11.32l1.8-2.143c1.442-1.678,2.86-3.53,4.151-5.263,2.461-3.3,6.3-9.079,6.706-11.367C214.8,125.224,214.295,125.164,213.68,125.561Z" transform="translate(-165.011 -124.317)" fill="#f5f6f1" stroke="rgba(0,0,0,0)" stroke-width="1"/><path d="M235.21,155.6a.443.443,0,0,1,.178.652c-.6,1.054-2.154,3.378-4.241,3.378a2.016,2.016,0,0,1-1.908-1.164c-.587-1.2-.239-2.817,1.027-4.676a2.921,2.921,0,0,1-1.5-1.119,7.449,7.449,0,0,1-5.4,4.032q-.108.29-.243.594a3.743,3.743,0,0,1-3.327,2.43,2.579,2.579,0,0,1-2.523-2.873c0-2.869,2.218-4.9,4.123-4.9a2.47,2.47,0,0,1,.731.1,2.124,2.124,0,0,1,1.412,1.209,3.731,3.731,0,0,1,.139,2.4c1.267-.306,3.32-1.284,4.711-4.363a2.634,2.634,0,0,1,.107-.6.434.434,0,0,1,.495-.345.52.52,0,0,1,.282.033.445.445,0,0,1,.275.619c-.063.162-.127.32-.193.473a1.34,1.34,0,0,0,.193.629,2.365,2.365,0,0,0,1.6.917.478.478,0,0,1,.3.766c-1.519,1.952-1.7,3.537-1.349,4.251a1.161,1.161,0,0,0,1.048.627c1.31,0,2.677-1.608,3.41-2.895a.444.444,0,0,1,.653-.178ZM219.8,158.758a2.936,2.936,0,0,0,2.453-1.852c.024-.056.049-.111.072-.167a1.988,1.988,0,0,1-1.7-1.218.478.478,0,0,1,.877-.383,1.186,1.186,0,0,0,1.047.658h.024l.081,0a3.29,3.29,0,0,0,.022-2.134,1.306,1.306,0,0,0-.816-.692,1.663,1.663,0,0,0-.459-.065c-1.272,0-3.154,1.582-3.154,3.941,0,1.118.613,1.907,1.553,1.907Zm2.745-2.961h0Z" transform="translate(-174.993 -134.161)" fill="#f5f6f1" stroke="rgba(0,0,0,0)" stroke-width="1"/><path d="M254.349,155.818a.444.444,0,0,1,.137.663c-1.427,2.176-3.158,3.413-4.717,3.413a1.538,1.538,0,0,1-1.688-1.477,4.814,4.814,0,0,1,.754-2.006,5.62,5.62,0,0,0,.815-2.145c0-.869-.9-.937-1.091-.937a3.338,3.338,0,0,0-2.488,1.654c-.617.919-1.335,2.109-1.744,2.8l-1.065,2.016a.452.452,0,0,1-.447.256.828.828,0,0,1-.224-.063.449.449,0,0,1-.191-.646l.7-1.315a.5.5,0,0,1,.069-.167c.012-.016.065-.1.146-.239l3.122-5.884a.479.479,0,0,1,.846.448l-.334.632a3.217,3.217,0,0,1,1.613-.446,1.927,1.927,0,0,1,2.048,1.893,6.009,6.009,0,0,1-.928,2.594,4.99,4.99,0,0,0-.641,1.556c0,.333.384.519.731.519.9,0,2.5-.816,3.917-2.979a.445.445,0,0,1,.663-.138Z" transform="translate(-184.471 -134.585)" fill="#f5f6f1" stroke="rgba(0,0,0,0)" stroke-width="1"/><path d="M262.467,150.854a.444.444,0,0,1,.152.659,12.394,12.394,0,0,0-1.782,4.458,1.214,1.214,0,0,0,.276.879,1.608,1.608,0,0,0,1.1.4c.851,0,2.332-.84,3.6-3.044a.478.478,0,1,1,.829.477c-1.3,2.253-2.921,3.521-4.431,3.521a2.454,2.454,0,0,1-1.793-.693,1.928,1.928,0,0,1-.522-1.586c.1-1.975,1.835-4.8,1.91-4.918a.445.445,0,0,1,.66-.152ZM264,146.582a.676.676,0,0,1,.668.626.791.791,0,0,1-.807.715.673.673,0,0,1-.686-.626.617.617,0,0,1,.274-.537.813.813,0,0,1,.549-.178Z" transform="translate(-191.108 -132.736)" fill="#f5f6f1" stroke="rgba(0,0,0,0)" stroke-width="1"/><path d="M279.715,156.475a.443.443,0,0,1,.122.665c-1.589,2.306-2.992,3.54-4.346,3.54a3.2,3.2,0,0,1-.553-.063l-.037-.032a2.05,2.05,0,0,1-1.163-1.191,2.341,2.341,0,0,1-.151-.679,4.676,4.676,0,0,1-3.27,1.934,1.757,1.757,0,0,1-.818-.192c-.44-.224-1.3-.882-.727-2.946a7.123,7.123,0,0,1,1.958-3.057c1.238-1.247,2.841-1.712,3.849-1.207a1.724,1.724,0,0,1,.854.934c.147-.278.3-.567.453-.859a.478.478,0,1,1,.847.445c-.469.892-.92,1.742-1.261,2.385-.208.393-.375.709-.48.909a2.617,2.617,0,0,0-.363,1.991.871.871,0,0,0,.838.647c.872,0,2.208-1.108,3.581-3.1a.444.444,0,0,1,.665-.123Zm-6.684,1.41a23.961,23.961,0,0,0,1.492-2.23l.075-.17c.049-.345.077-1.117-.45-1.382a1.218,1.218,0,0,0-.514-.109,3.526,3.526,0,0,0-2.227,1.136,6.292,6.292,0,0,0-1.716,2.634c-.257.943-.1,1.673.24,1.844.455.229,1.826-.126,3.1-1.722Z" transform="translate(-194.395 -135.181)" fill="#f5f6f1" stroke="rgba(0,0,0,0)" stroke-width="1"/></g><g transform="translate(212.43 89.535)"><path d="M337.812,126.826a.445.445,0,0,1,.169.581c-.045.106-3.959,9.322-5.823,14.4q.768-.082,1.55-.156a.478.478,0,0,1,.09.952q-1.012.1-2,.2c-.119.343-.224.656-.312.932-1.312,4.134-1.887,6.574-1.893,6.574a.477.477,0,1,1-.932-.205c.024-.1.588-2.481,1.912-6.658.052-.163.109-.338.172-.523-2.306.271-4.46.58-6.324.876-3.439,4.79-6.623,8.91-9.286,10.5a.382.382,0,0,1-.255.064.387.387,0,0,1-.384-.224.451.451,0,0,1,.16-.67c2.336-1.412,5.337-5.2,8.424-9.454-3.2.534-5.26.975-5.294.983a.356.356,0,0,1-.1.011.477.477,0,0,1-.1-.946c.037-.009,2.525-.542,6.278-1.147.7-.98,1.407-1.975,2.107-2.963l.313-.441a104.659,104.659,0,0,1,10.914-12.644.445.445,0,0,1,.6-.05Zm-6.716,15.1c1.272-3.533,3.689-9.379,5.041-12.605a99.159,99.159,0,0,0-9.063,10.755l-.312.441q-.788,1.112-1.562,2.2c1.779-.272,3.779-.549,5.9-.791Z" transform="translate(-314.411 -126.712)" fill="#f5f6f1" stroke="rgba(0,0,0,0)" stroke-width="1"/><path d="M351.255,153.018a1.721,1.721,0,0,1,1.872,1.592v.062a3.024,3.024,0,0,1-1.939,2.524,8.306,8.306,0,0,1-3.719.966,1.654,1.654,0,0,0,1.36,1.456c2.578.732,5.136-1.473,6.228-3.053a.479.479,0,0,1,.788.544,7.537,7.537,0,0,1-6.013,3.593,5.215,5.215,0,0,1-1.258-.16,2.586,2.586,0,0,1-2.08-2.447c0-2.126,2.416-5.075,4.76-5.075Zm0,.957c-1.5,0-3.18,1.787-3.631,3.231a7.617,7.617,0,0,0,3.125-.859,2.325,2.325,0,0,0,1.423-1.691c-.006-.113-.033-.682-.918-.682Z" transform="translate(-326.543 -136.652)" fill="#f5f6f1" stroke="rgba(0,0,0,0)" stroke-width="1"/><path d="M369.6,156.185a.444.444,0,0,1,.188.65,3.137,3.137,0,0,1-2.747,1.871H367a2.629,2.629,0,0,1-1.612-.558,3.037,3.037,0,0,1-.44.968,2.391,2.391,0,0,1-2.105,1.083,1.594,1.594,0,0,1-1.642-1.247,1.362,1.362,0,0,1,.694-1.5.444.444,0,0,1,.62.272c.114.293-.019.542-.349.708a.713.713,0,0,0,.047.534.757.757,0,0,0,.631.285,1.6,1.6,0,0,0,1.318-.677,2.586,2.586,0,0,0,.184-2.264c-.349-.912-.984-2.481-1.167-2.963-.68.89-1.656,2.4-2.333,3.5a.444.444,0,0,1-.659.155.457.457,0,0,1-.158-.654c1.047-1.647,2.872-4.267,2.888-4.289a.419.419,0,0,1,.451-.193.423.423,0,0,1,.386.311c.008.021.96,2.422,1.484,3.792a3.87,3.87,0,0,1,.2.743.534.534,0,0,1,.041.069,1.848,1.848,0,0,0,1.53.969h.022a2.345,2.345,0,0,0,1.91-1.375.443.443,0,0,1,.649-.188Z" transform="translate(-331.634 -136.213)" fill="#f5f6f1" stroke="rgba(0,0,0,0)" stroke-width="1"/><path d="M383.62,139.935a.478.478,0,1,1,0,.956l-4,0c-1.591,3-3.155,5.912-3.813,7.046-.708,1.216-.958,2.417-.575,3.075a1.642,1.642,0,0,0,1.441.646h.009a.56.56,0,0,1,.073,0,.551.551,0,0,1,.073,0c.906,0,2.507-1.36,3.491-2.883a.478.478,0,0,1,.8.519c-.762,1.18-2.6,3.313-4.293,3.313-.026,0-.051,0-.074,0s-.045,0-.068,0h-.036a2.4,2.4,0,0,1-2.246-1.114c-.585-.992-.394-2.367.574-4.036.2-.341.483-.853.826-1.481l.023-.047L378.5,140.9l-3.925,0a.478.478,0,0,1,0-.956l4.432-.006,4.186-7.882a.478.478,0,0,1,.846.447c-.143.274-1.98,3.78-3.917,7.434l3.492,0Z" transform="translate(-336.972 -128.626)" fill="#f5f6f1" stroke="rgba(0,0,0,0)" stroke-width="1"/><path d="M394.067,126.767a.443.443,0,0,1,.2.645L385.655,143.8a3.387,3.387,0,0,1,3.182-.535,1.733,1.733,0,0,1,.821,2.058,9.448,9.448,0,0,1-.867,2.044,10.526,10.526,0,0,0-.628,1.356c-.3.86-.073,1.24.609,1.15.974-.129,2.545-1.211,3.8-3.236a.478.478,0,1,1,.813.5c-1.263,2.038-3.218,3.7-4.784,3.7a1.5,1.5,0,0,1-.749-.16c-.552-.255-1.025-1.013-.593-2.269a11.206,11.206,0,0,1,.684-1.486,8.927,8.927,0,0,0,.787-1.834c.181-.723-.238-.93-.318-.969-.675-.335-2.3.134-3.551,1.7a24.238,24.238,0,0,0-1.4,2.157l-.035.057-1.24,2.36a.427.427,0,0,1-.447.255.629.629,0,0,1-.224-.032.464.464,0,0,1-.192-.655l12.091-23a.445.445,0,0,1,.647-.2Z" transform="translate(-339.691 -126.7)" fill="#f5f6f1" stroke="rgba(0,0,0,0)" stroke-width="1"/><path d="M403.641,153.018a1.721,1.721,0,0,1,1.872,1.592v.062a3.024,3.024,0,0,1-1.938,2.524,8.31,8.31,0,0,1-3.719.966,1.654,1.654,0,0,0,1.36,1.456c2.578.732,5.136-1.473,6.228-3.053a.479.479,0,0,1,.788.544,7.536,7.536,0,0,1-6.013,3.593,5.219,5.219,0,0,1-1.258-.16,2.586,2.586,0,0,1-2.079-2.447c0-2.126,2.416-5.075,4.76-5.075Zm0,.957c-1.5,0-3.18,1.787-3.63,3.231a7.617,7.617,0,0,0,3.125-.859,2.323,2.323,0,0,0,1.423-1.691c-.006-.113-.032-.682-.918-.682Z" transform="translate(-346.352 -136.652)" fill="#f5f6f1" stroke="rgba(0,0,0,0)" stroke-width="1"/><path d="M421.626,139.935a.478.478,0,1,1,0,.956l-4,0c-1.591,3-3.155,5.912-3.813,7.046-.707,1.216-.958,2.417-.575,3.075a1.642,1.642,0,0,0,1.441.646h.009a.621.621,0,0,0,.147,0c.905,0,2.507-1.36,3.49-2.883a.478.478,0,0,1,.8.519c-.762,1.18-2.6,3.313-4.293,3.313-.026,0-.05,0-.074,0s-.045,0-.068,0h-.036a2.4,2.4,0,0,1-2.246-1.114c-.585-.992-.393-2.367.574-4.036.2-.341.483-.853.826-1.481l.024-.047,2.675-5.036-3.924,0a.478.478,0,0,1,0-.956l4.433-.006,4.185-7.882a.478.478,0,0,1,.846.447c-.144.274-1.981,3.78-3.917,7.434l3.492,0Z" transform="translate(-351.343 -128.626)" fill="#f5f6f1" stroke="rgba(0,0,0,0)" stroke-width="1"/><path d="M424.25,150.854a.444.444,0,0,1,.152.659,12.393,12.393,0,0,0-1.782,4.458,1.214,1.214,0,0,0,.276.879,1.608,1.608,0,0,0,1.1.4c.851,0,2.332-.84,3.6-3.044a.478.478,0,1,1,.828.477c-1.3,2.253-2.921,3.521-4.431,3.521a2.454,2.454,0,0,1-1.793-.693,1.928,1.928,0,0,1-.522-1.586c.1-1.975,1.835-4.8,1.91-4.918a.445.445,0,0,1,.66-.152Zm1.534-4.272a.676.676,0,0,1,.668.626.791.791,0,0,1-.807.715.673.673,0,0,1-.686-.626.617.617,0,0,1,.274-.537.813.813,0,0,1,.549-.178Z" transform="translate(-354.97 -134.218)" fill="#f5f6f1" stroke="rgba(0,0,0,0)" stroke-width="1"/><path d="M434.709,153.182a1.731,1.731,0,0,1,1.756,1.833,3.089,3.089,0,0,1-.189,1.035.478.478,0,1,1-.9-.314,2.3,2.3,0,0,0,.137-.721.783.783,0,0,0-.8-.877,2.4,2.4,0,0,0-1.548.8,4.462,4.462,0,0,0-1.255,2.943,2.2,2.2,0,0,0,2.39,2.07c1.737,0,3.385-1.361,4.568-3.307a.478.478,0,0,1,.817.5c-1.432,2.356-3.277,3.779-5.386,3.779a3.124,3.124,0,0,1-3.346-3.017,5.2,5.2,0,0,1,1.527-3.635,3.143,3.143,0,0,1,2.232-1.09Z" transform="translate(-358.477 -136.713)" fill="#f5f6f1" stroke="rgba(0,0,0,0)" stroke-width="1"/><path d="M453.006,156.185a.444.444,0,0,1,.188.65,3.139,3.139,0,0,1-2.747,1.871h-.035a2.628,2.628,0,0,1-1.612-.558,3.064,3.064,0,0,1-.44.968,2.392,2.392,0,0,1-2.105,1.083,1.594,1.594,0,0,1-1.642-1.247,1.362,1.362,0,0,1,.695-1.5.444.444,0,0,1,.619.272c.114.293-.019.542-.349.708a.72.72,0,0,0,.047.534.759.759,0,0,0,.631.285,1.6,1.6,0,0,0,1.318-.677,2.588,2.588,0,0,0,.184-2.264c-.349-.912-.984-2.481-1.167-2.963-.68.89-1.656,2.4-2.333,3.5a.443.443,0,0,1-.658.155.457.457,0,0,1-.158-.654c1.047-1.647,2.872-4.267,2.888-4.289a.418.418,0,0,1,.451-.193.424.424,0,0,1,.386.311c.007.021.96,2.422,1.484,3.792a3.913,3.913,0,0,1,.2.743.614.614,0,0,1,.041.069,1.847,1.847,0,0,0,1.53.969h.022a2.344,2.344,0,0,0,1.909-1.375.443.443,0,0,1,.65-.188Z" transform="translate(-363.172 -136.213)" fill="#f5f6f1" stroke="rgba(0,0,0,0)" stroke-width="1"/></g><path d="M318.426,30.181a8.222,8.222,0,0,0-3.162,1.069,9.967,9.967,0,0,0-3.348,2.558l-1.675,1.953-28.179,67.052h-2.6L249.421,35.482l-1.116-1.674a8.531,8.531,0,0,0-2.65-2.6,5.4,5.4,0,0,0-2.558-1.023V28.414h29.759v1.767a3.338,3.338,0,0,0-2.046.93,11.5,11.5,0,0,0-2.232,2.7l-1.3,1.953,20.274,48.174,20.924-48.267q.091-3.439-.557-4.464a2.083,2.083,0,0,0-1.861-1.023V28.414h12.37Z" transform="translate(-75.015 0)" fill="#f5f6f1" stroke="rgba(0,0,0,0)" stroke-width="1"/><path d="M100.979,87l-3.72,15.809H44.714v-1.767a3.377,3.377,0,0,0,2-.976,12.477,12.477,0,0,0,2.279-2.65l1.3-1.953V35.761l-1.3-1.953a12.462,12.462,0,0,0-2.279-2.65,3.377,3.377,0,0,0-2-.976V28.414H94.841l3.72,15.81H96.794q-1.952-7.346-6.138-10.695T79.031,30.181H72.707a4.319,4.319,0,0,0-3.487,1.488,6.152,6.152,0,0,0-1.255,4.092v26.6a1.906,1.906,0,0,0,1.86,1.86h5.114a51.676,51.676,0,0,0,8.882-.558,6.334,6.334,0,0,0,4.046-2.047,7.4,7.4,0,0,0,1.116-4.464h1.767v15.9H88.982a7.4,7.4,0,0,0-1.116-4.464,6.343,6.343,0,0,0-4.046-2.046,51.663,51.663,0,0,0-8.882-.558H69.824a1.908,1.908,0,0,0-1.86,1.861V95.467a6.148,6.148,0,0,0,1.255,4.092,4.316,4.316,0,0,0,3.487,1.488h8.742q7.439,0,11.625-3.348T99.212,87Z" transform="translate(0 0)" fill="#f5f6f1" stroke="rgba(0,0,0,0)" stroke-width="1"/><path d="M211.486,87.033v1.395H187.492V87.033a2.666,2.666,0,0,0,1.674-.836,11.872,11.872,0,0,0,1.86-2.232l1.116-1.581V54.111a32.112,32.112,0,0,0-.884-8.37,3.928,3.928,0,0,0-4.139-3.162q-3.069,0-5.44,3.72a19.879,19.879,0,0,0-2.836,9.114v26.97l1.116,1.581q1.859,3.07,3.534,3.069v1.395H159.5V87.033a2.664,2.664,0,0,0,1.674-.836,11.872,11.872,0,0,0,1.86-2.232l1.116-1.581V46.392h-2.79V44.626a22.354,22.354,0,0,0,8.37-1.489,28.063,28.063,0,0,0,7.719-4.929h1.4v9.021a12.781,12.781,0,0,1,5.208-5.719,14.9,14.9,0,0,1,7.626-2q7.067,0,11.02,3.767t4.139,10.834V82.383l1.116,1.581Q209.811,87.034,211.486,87.033Z" transform="translate(-43.404 -3.703)" fill="#f5f6f1" stroke="rgba(0,0,0,0)" stroke-width="1"/><path d="M401.718,42.916a18.328,18.328,0,0,1,7.255,7.161,21.943,21.943,0,0,1,2.7,11.113,1.173,1.173,0,0,1-.279.79.929.929,0,0,1-.744.326H384.978V65.1a38.182,38.182,0,0,0,2.046,13.578q2.045,5.3,5.673,6.417a9.863,9.863,0,0,0,2.883.372A14.252,14.252,0,0,0,402.6,83.51a14.767,14.767,0,0,0,5.626-5.673l1.3,1.209a18.087,18.087,0,0,1-7.209,7.859,20.528,20.528,0,0,1-10.555,2.743,30.091,30.091,0,0,1-4.836-.465,23.093,23.093,0,0,1-13.484-8.277q-5.117-6.417-5.115-15.81a26.637,26.637,0,0,1,2.976-12.741,22.046,22.046,0,0,1,8.276-8.742,22.977,22.977,0,0,1,12-3.162A20.969,20.969,0,0,1,401.718,42.916Zm-4.37,17.065a1.783,1.783,0,0,0,.557-1.3V57.191q-.372-8.555-1.813-11.95t-4.51-3.395q-3.348,0-4.836,4.51t-1.674,14.182h10.973A1.787,1.787,0,0,0,397.348,59.981Z" transform="translate(-122.371 -4.552)" fill="#f5f6f1" stroke="rgba(0,0,0,0)" stroke-width="1"/><rect width="26.745" height="1.765" transform="translate(260.589 28.414)" fill="#f5f6f1" stroke="rgba(0,0,0,0)" stroke-width="1"/></g></svg>